<?xml version="1.0" standalone="no"?>
<!DOCTYPE svg PUBLIC "-//W3C//DTD SVG 20010904//EN"
 "http://www.w3.org/TR/2001/REC-SVG-20010904/DTD/svg10.dtd">
<svg version="1.0" xmlns="http://www.w3.org/2000/svg"
 width="1000.000000pt" height="200.000000pt" viewBox="0 0 1000.000000 200.000000"
 preserveAspectRatio="xMidYMid meet">

<g transform="translate(0.000000,200.000000) scale(0.100000,-0.100000)"
fill="#000000" stroke="none">
<path d="M4440 1930 c0 -21 -149 -42 -400 -55 -294 -15 -429 -27 -470 -40 -25
-7 -91 -19 -147 -25 -56 -6 -133 -20 -170 -31 -37 -11 -78 -23 -91 -26 -12 -3
-33 -18 -46 -34 -29 -34 -40 -35 -97 -9 -56 25 -103 25 -143 1 -17 -11 -47
-22 -67 -26 -31 -6 -36 -4 -47 19 -6 14 -16 26 -22 26 -20 0 -65 -28 -87 -54
-13 -14 -31 -26 -40 -26 -9 0 -31 -14 -49 -31 -25 -24 -50 -34 -117 -49 -47
-10 -94 -23 -104 -29 -35 -19 -117 -41 -154 -41 -21 0 -41 -5 -45 -11 -3 -6
-18 -9 -31 -6 -61 11 -129 -34 -151 -100 -8 -25 -7 -36 6 -54 14 -21 14 -23
-9 -42 -19 -16 -34 -18 -76 -14 -59 6 -62 3 -34 -51 11 -21 22 -54 26 -74 4
-20 22 -61 41 -90 19 -29 34 -60 34 -70 0 -10 16 -35 35 -57 27 -29 35 -47 35
-75 0 -20 9 -55 21 -77 11 -23 24 -60 28 -82 l7 -42 91 3 c98 4 127 -8 85 -36
-12 -8 -22 -24 -22 -36 0 -32 -26 -64 -60 -71 -25 -5 -30 -11 -30 -36 0 -35
24 -39 41 -8 10 20 12 20 27 5 15 -14 14 -18 -6 -45 -12 -17 -22 -35 -22 -40
0 -19 21 -22 45 -7 33 22 35 21 35 -14 0 -16 5 -30 10 -30 14 0 12 -34 -2 -49
-11 -10 -6 -18 25 -43 36 -29 41 -30 154 -33 68 -2 126 1 140 8 32 14 40 2 20
-32 -41 -70 -5 -83 157 -56 11 2 66 11 121 20 55 9 125 22 156 30 31 8 71 15
87 15 17 0 38 7 47 16 23 24 110 54 154 54 22 0 44 6 51 15 7 9 29 15 54 15
22 0 59 6 81 14 25 9 114 16 240 21 110 4 232 11 270 16 39 5 120 12 180 15
61 4 121 11 135 17 32 12 1432 20 1480 7 19 -4 82 -11 140 -15 58 -3 121 -9
140 -13 19 -3 58 -5 85 -4 118 5 232 1 270 -10 57 -16 53 -15 130 -32 111 -24
126 -26 189 -27 32 -1 75 -8 94 -16 51 -21 174 -44 274 -50 79 -5 89 -4 115
17 25 20 28 20 31 5 2 -9 -1 -22 -7 -28 -22 -22 -12 -37 24 -37 20 0 52 -7 73
-16 104 -45 167 -49 244 -17 35 15 41 15 89 -6 28 -11 70 -21 93 -21 23 0 52
-7 64 -16 31 -21 36 -4 23 76 -8 45 -7 67 0 77 15 17 34 17 49 -2 15 -19 50
-19 74 -2 16 12 17 16 5 35 -7 11 -24 25 -37 31 -34 16 -27 55 10 59 23 3 32
-3 49 -32 15 -25 28 -36 44 -36 38 0 39 17 1 69 -51 69 -47 80 29 91 l40 5 18
70 c18 71 17 138 -3 176 -11 19 -11 19 -38 1 -32 -23 -101 -36 -121 -23 -19
12 -5 31 25 31 38 0 66 53 60 112 -3 25 -11 56 -18 68 -11 18 -10 23 6 36 11
8 30 14 43 14 14 0 23 6 23 15 0 8 -7 15 -15 15 -17 0 -39 40 -50 88 -5 25 -3
33 10 38 8 4 23 20 31 37 13 25 14 36 4 73 -9 31 -10 48 -2 57 7 8 8 26 2 52
-5 22 -10 68 -10 103 0 56 -2 63 -17 58 -30 -8 -127 -10 -149 -3 -11 4 -27 19
-35 33 -27 51 -143 88 -329 105 -84 8 -146 19 -189 35 -35 13 -75 24 -90 24
-15 0 -32 5 -39 12 -6 6 -63 15 -128 19 -64 5 -137 15 -163 23 -25 8 -58 17
-72 18 -15 2 -34 10 -43 17 -13 11 -17 11 -22 -3 -6 -17 -39 -16 -104 4 -19 5
-52 10 -73 10 -23 0 -49 8 -67 21 -26 20 -36 21 -110 15 -81 -7 -81 -7 -117
24 -32 29 -40 31 -87 27 -28 -3 -65 -8 -82 -12 -21 -5 -34 -2 -43 9 -7 8 -18
13 -25 10 -7 -3 -19 2 -26 11 -20 24 -103 13 -122 -17 -5 -9 -17 -9 -46 0 -22
7 -49 12 -61 12 -12 0 -47 9 -79 19 -55 19 -77 19 -567 11 -281 -5 -523 -11
-540 -14 -16 -3 -70 -6 -119 -7 -81 -1 -92 1 -107 20 -18 23 -29 27 -29 11z
m3080 -490 c0 -5 -4 -10 -10 -10 -5 0 -10 5 -10 10 0 6 5 10 10 10 6 0 10 -4
10 -10z m-4020 -155 c0 -8 -9 -15 -20 -15 -20 0 -26 11 -13 23 12 13 33 7 33
-8z m4580 -115 c0 -11 -4 -20 -10 -20 -5 0 -10 9 -10 20 0 11 5 20 10 20 6 0
10 -9 10 -20z m-456 -318 c9 -15 -12 -35 -29 -28 -14 5 -15 9 -5 21 14 17 26
19 34 7z m344 -124 c-6 -18 -58 -20 -58 -2 0 9 11 14 31 14 20 0 29 -4 27 -12z
m-5548 -62 c0 -14 -64 -76 -79 -76 -17 0 -30 26 -25 48 9 33 104 59 104 28z
m-39 -139 c-8 -8 -11 -5 -11 9 0 27 14 41 18 19 2 -9 -1 -22 -7 -28z m5279
-127 c0 -11 -25 -25 -62 -34 -35 -8 -39 16 -5 32 28 14 67 15 67 2z m264 -19
c9 -14 -29 -55 -42 -47 -13 8 -16 39 -5 49 9 10 41 9 47 -2z m-384 -31 c0 -5
-4 -10 -10 -10 -5 0 -10 5 -10 10 0 6 5 10 10 10 6 0 10 -4 10 -10z m-870 -10
c0 -5 -4 -10 -10 -10 -5 0 -10 5 -10 10 0 6 5 10 10 10 6 0 10 -4 10 -10z"/>
<path d="M3082 1768 c-14 -14 -16 -38 -2 -38 9 0 30 31 30 44 0 10 -15 7 -28
-6z"/>
<path d="M1915 1421 c-7 -12 12 -24 25 -16 11 7 4 25 -10 25 -5 0 -11 -4 -15
-9z"/>
<path d="M2093 613 c-21 -8 -16 -43 6 -43 17 0 31 18 31 41 0 10 -17 11 -37 2z"/>
</g>
</svg>
